<?xml version="1.0" encoding="utf-8" standalone="no"?>
<!DOCTYPE svg PUBLIC "-//W3C//DTD SVG 1.1//EN"
  "http://www.w3.org/Graphics/SVG/1.1/DTD/svg11.dtd">
<svg xmlns:xlink="http://www.w3.org/1999/xlink" width="864pt" height="504pt" viewBox="0 0 864 504" xmlns="http://www.w3.org/2000/svg" version="1.1">
 <metadata>
  <rdf:RDF xmlns:dc="http://purl.org/dc/elements/1.1/" xmlns:cc="http://creativecommons.org/ns#" xmlns:rdf="http://www.w3.org/1999/02/22-rdf-syntax-ns#">
   <cc:Work>
    <dc:type rdf:resource="http://purl.org/dc/dcmitype/StillImage"/>
    <dc:date>2024-12-18T15:04:31.224613</dc:date>
    <dc:format>image/svg+xml</dc:format>
    <dc:creator>
     <cc:Agent>
      <dc:title>Matplotlib v3.8.4, https://matplotlib.org/</dc:title>
     </cc:Agent>
    </dc:creator>
   </cc:Work>
  </rdf:RDF>
 </metadata>
 <defs>
  <style type="text/css">*{stroke-linejoin: round; stroke-linecap: butt}</style>
 </defs>
 <g id="figure_1">
  <g id="patch_1">
   <path d="M 0 504 
L 864 504 
L 864 0 
L 0 0 
z
" style="fill: #ffffff"/>
  </g>
  <g id="axes_1">
   <g id="patch_2">
    <path d="M 76.59 379.473305 
L 699.15 379.473305 
L 699.15 19.44 
L 76.59 19.44 
z
" style="fill: #ffffff"/>
   </g>
   <g id="matplotlib.axis_1">
    <g id="xtick_1">
     <g id="line2d_1">
      <path d="M 104.888182 379.473305 
L 104.888182 19.44 
" clip-path="url(#p81ff751e1d)" style="fill: none; stroke: #808080; stroke-opacity: 0.6; stroke-width: 2; stroke-linecap: round"/>
     </g>
     <g id="text_1">
      <!-- uniform-8 -->
      <g style="fill: #262626" transform="translate(79.675047 454.703742) rotate(-45) scale(0.165 -0.165)">
       <defs>
        <path id="DejaVuSans-75" d="M 544 1381 
L 544 3500 
L 1119 3500 
L 1119 1403 
Q 1119 906 1312 657 
Q 1506 409 1894 409 
Q 2359 409 2629 706 
Q 2900 1003 2900 1516 
L 2900 3500 
L 3475 3500 
L 3475 0 
L 2900 0 
L 2900 538 
Q 2691 219 2414 64 
Q 2138 -91 1772 -91 
Q 1169 -91 856 284 
Q 544 659 544 1381 
z
M 1991 3584 
L 1991 3584 
z
" transform="scale(0.015625)"/>
        <path id="DejaVuSans-6e" d="M 3513 2113 
L 3513 0 
L 2938 0 
L 2938 2094 
Q 2938 2591 2744 2837 
Q 2550 3084 2163 3084 
Q 1697 3084 1428 2787 
Q 1159 2491 1159 1978 
L 1159 0 
L 581 0 
L 581 3500 
L 1159 3500 
L 1159 2956 
Q 1366 3272 1645 3428 
Q 1925 3584 2291 3584 
Q 2894 3584 3203 3211 
Q 3513 2838 3513 2113 
z
" transform="scale(0.015625)"/>
        <path id="DejaVuSans-69" d="M 603 3500 
L 1178 3500 
L 1178 0 
L 603 0 
L 603 3500 
z
M 603 4863 
L 1178 4863 
L 1178 4134 
L 603 4134 
L 603 4863 
z
" transform="scale(0.015625)"/>
        <path id="DejaVuSans-66" d="M 2375 4863 
L 2375 4384 
L 1825 4384 
Q 1516 4384 1395 4259 
Q 1275 4134 1275 3809 
L 1275 3500 
L 2222 3500 
L 2222 3053 
L 1275 3053 
L 1275 0 
L 697 0 
L 697 3053 
L 147 3053 
L 147 3500 
L 697 3500 
L 697 3744 
Q 697 4328 969 4595 
Q 1241 4863 1831 4863 
L 2375 4863 
z
" transform="scale(0.015625)"/>
        <path id="DejaVuSans-6f" d="M 1959 3097 
Q 1497 3097 1228 2736 
Q 959 2375 959 1747 
Q 959 1119 1226 758 
Q 1494 397 1959 397 
Q 2419 397 2687 759 
Q 2956 1122 2956 1747 
Q 2956 2369 2687 2733 
Q 2419 3097 1959 3097 
z
M 1959 3584 
Q 2709 3584 3137 3096 
Q 3566 2609 3566 1747 
Q 3566 888 3137 398 
Q 2709 -91 1959 -91 
Q 1206 -91 779 398 
Q 353 888 353 1747 
Q 353 2609 779 3096 
Q 1206 3584 1959 3584 
z
" transform="scale(0.015625)"/>
        <path id="DejaVuSans-72" d="M 2631 2963 
Q 2534 3019 2420 3045 
Q 2306 3072 2169 3072 
Q 1681 3072 1420 2755 
Q 1159 2438 1159 1844 
L 1159 0 
L 581 0 
L 581 3500 
L 1159 3500 
L 1159 2956 
Q 1341 3275 1631 3429 
Q 1922 3584 2338 3584 
Q 2397 3584 2469 3576 
Q 2541 3569 2628 3553 
L 2631 2963 
z
" transform="scale(0.015625)"/>
        <path id="DejaVuSans-6d" d="M 3328 2828 
Q 3544 3216 3844 3400 
Q 4144 3584 4550 3584 
Q 5097 3584 5394 3201 
Q 5691 2819 5691 2113 
L 5691 0 
L 5113 0 
L 5113 2094 
Q 5113 2597 4934 2840 
Q 4756 3084 4391 3084 
Q 3944 3084 3684 2787 
Q 3425 2491 3425 1978 
L 3425 0 
L 2847 0 
L 2847 2094 
Q 2847 2600 2669 2842 
Q 2491 3084 2119 3084 
Q 1678 3084 1418 2786 
Q 1159 2488 1159 1978 
L 1159 0 
L 581 0 
L 581 3500 
L 1159 3500 
L 1159 2956 
Q 1356 3278 1631 3431 
Q 1906 3584 2284 3584 
Q 2666 3584 2933 3390 
Q 3200 3197 3328 2828 
z
" transform="scale(0.015625)"/>
        <path id="DejaVuSans-2d" d="M 313 2009 
L 1997 2009 
L 1997 1497 
L 313 1497 
L 313 2009 
z
" transform="scale(0.015625)"/>
        <path id="DejaVuSans-38" d="M 2034 2216 
Q 1584 2216 1326 1975 
Q 1069 1734 1069 1313 
Q 1069 891 1326 650 
Q 1584 409 2034 409 
Q 2484 409 2743 651 
Q 3003 894 3003 1313 
Q 3003 1734 2745 1975 
Q 2488 2216 2034 2216 
z
M 1403 2484 
Q 997 2584 770 2862 
Q 544 3141 544 3541 
Q 544 4100 942 4425 
Q 1341 4750 2034 4750 
Q 2731 4750 3128 4425 
Q 3525 4100 3525 3541 
Q 3525 3141 3298 2862 
Q 3072 2584 2669 2484 
Q 3125 2378 3379 2068 
Q 3634 1759 3634 1313 
Q 3634 634 3220 271 
Q 2806 -91 2034 -91 
Q 1263 -91 848 271 
Q 434 634 434 1313 
Q 434 1759 690 2068 
Q 947 2378 1403 2484 
z
M 1172 3481 
Q 1172 3119 1398 2916 
Q 1625 2713 2034 2713 
Q 2441 2713 2670 2916 
Q 2900 3119 2900 3481 
Q 2900 3844 2670 4047 
Q 2441 4250 2034 4250 
Q 1625 4250 1398 4047 
Q 1172 3844 1172 3481 
z
" transform="scale(0.015625)"/>
       </defs>
       <use xlink:href="#DejaVuSans-75"/>
       <use xlink:href="#DejaVuSans-6e" x="63.378906"/>
       <use xlink:href="#DejaVuSans-69" x="126.757812"/>
       <use xlink:href="#DejaVuSans-66" x="154.541016"/>
       <use xlink:href="#DejaVuSans-6f" x="189.746094"/>
       <use xlink:href="#DejaVuSans-72" x="250.927734"/>
       <use xlink:href="#DejaVuSans-6d" x="290.291016"/>
       <use xlink:href="#DejaVuSans-2d" x="387.703125"/>
       <use xlink:href="#DejaVuSans-38" x="423.787109"/>
      </g>
     </g>
    </g>
    <g id="xtick_2">
     <g id="line2d_2">
      <path d="M 161.484545 379.473305 
L 161.484545 19.44 
" clip-path="url(#p81ff751e1d)" style="fill: none; stroke: #808080; stroke-opacity: 0.6; stroke-width: 2; stroke-linecap: round"/>
     </g>
     <g id="text_2">
      <!-- skew-8-0.1 -->
      <g style="fill: #262626" transform="translate(132.93986 461.366842) rotate(-45) scale(0.165 -0.165)">
       <defs>
        <path id="DejaVuSans-73" d="M 2834 3397 
L 2834 2853 
Q 2591 2978 2328 3040 
Q 2066 3103 1784 3103 
Q 1356 3103 1142 2972 
Q 928 2841 928 2578 
Q 928 2378 1081 2264 
Q 1234 2150 1697 2047 
L 1894 2003 
Q 2506 1872 2764 1633 
Q 3022 1394 3022 966 
Q 3022 478 2636 193 
Q 2250 -91 1575 -91 
Q 1294 -91 989 -36 
Q 684 19 347 128 
L 347 722 
Q 666 556 975 473 
Q 1284 391 1588 391 
Q 1994 391 2212 530 
Q 2431 669 2431 922 
Q 2431 1156 2273 1281 
Q 2116 1406 1581 1522 
L 1381 1569 
Q 847 1681 609 1914 
Q 372 2147 372 2553 
Q 372 3047 722 3315 
Q 1072 3584 1716 3584 
Q 2034 3584 2315 3537 
Q 2597 3491 2834 3397 
z
" transform="scale(0.015625)"/>
        <path id="DejaVuSans-6b" d="M 581 4863 
L 1159 4863 
L 1159 1991 
L 2875 3500 
L 3609 3500 
L 1753 1863 
L 3688 0 
L 2938 0 
L 1159 1709 
L 1159 0 
L 581 0 
L 581 4863 
z
" transform="scale(0.015625)"/>
        <path id="DejaVuSans-65" d="M 3597 1894 
L 3597 1613 
L 953 1613 
Q 991 1019 1311 708 
Q 1631 397 2203 397 
Q 2534 397 2845 478 
Q 3156 559 3463 722 
L 3463 178 
Q 3153 47 2828 -22 
Q 2503 -91 2169 -91 
Q 1331 -91 842 396 
Q 353 884 353 1716 
Q 353 2575 817 3079 
Q 1281 3584 2069 3584 
Q 2775 3584 3186 3129 
Q 3597 2675 3597 1894 
z
M 3022 2063 
Q 3016 2534 2758 2815 
Q 2500 3097 2075 3097 
Q 1594 3097 1305 2825 
Q 1016 2553 972 2059 
L 3022 2063 
z
" transform="scale(0.015625)"/>
        <path id="DejaVuSans-77" d="M 269 3500 
L 844 3500 
L 1563 769 
L 2278 3500 
L 2956 3500 
L 3675 769 
L 4391 3500 
L 4966 3500 
L 4050 0 
L 3372 0 
L 2619 2869 
L 1863 0 
L 1184 0 
L 269 3500 
z
" transform="scale(0.015625)"/>
        <path id="DejaVuSans-30" d="M 2034 4250 
Q 1547 4250 1301 3770 
Q 1056 3291 1056 2328 
Q 1056 1369 1301 889 
Q 1547 409 2034 409 
Q 2525 409 2770 889 
Q 3016 1369 3016 2328 
Q 3016 3291 2770 3770 
Q 2525 4250 2034 4250 
z
M 2034 4750 
Q 2819 4750 3233 4129 
Q 3647 3509 3647 2328 
Q 3647 1150 3233 529 
Q 2819 -91 2034 -91 
Q 1250 -91 836 529 
Q 422 1150 422 2328 
Q 422 3509 836 4129 
Q 1250 4750 2034 4750 
z
" transform="scale(0.015625)"/>
        <path id="DejaVuSans-2e" d="M 684 794 
L 1344 794 
L 1344 0 
L 684 0 
L 684 794 
z
" transform="scale(0.015625)"/>
        <path id="DejaVuSans-31" d="M 794 531 
L 1825 531 
L 1825 4091 
L 703 3866 
L 703 4441 
L 1819 4666 
L 2450 4666 
L 2450 531 
L 3481 531 
L 3481 0 
L 794 0 
L 794 531 
z
" transform="scale(0.015625)"/>
       </defs>
       <use xlink:href="#DejaVuSans-73"/>
       <use xlink:href="#DejaVuSans-6b" x="52.099609"/>
       <use xlink:href="#DejaVuSans-65" x="106.384766"/>
       <use xlink:href="#DejaVuSans-77" x="167.908203"/>
       <use xlink:href="#DejaVuSans-2d" x="249.695312"/>
       <use xlink:href="#DejaVuSans-38" x="285.779297"/>
       <use xlink:href="#DejaVuSans-2d" x="349.402344"/>
       <use xlink:href="#DejaVuSans-30" x="385.486328"/>
       <use xlink:href="#DejaVuSans-2e" x="449.109375"/>
       <use xlink:href="#DejaVuSans-31" x="480.896484"/>
      </g>
     </g>
    </g>
    <g id="xtick_3">
     <g id="line2d_3">
      <path d="M 218.080909 379.473305 
L 218.080909 19.44 
" clip-path="url(#p81ff751e1d)" style="fill: none; stroke: #808080; stroke-opacity: 0.6; stroke-width: 2; stroke-linecap: round"/>
     </g>
     <g id="text_3">
      <!-- skew-8-0.2 -->
      <g style="fill: #262626" transform="translate(189.536224 461.366842) rotate(-45) scale(0.165 -0.165)">
       <defs>
        <path id="DejaVuSans-32" d="M 1228 531 
L 3431 531 
L 3431 0 
L 469 0 
L 469 531 
Q 828 903 1448 1529 
Q 2069 2156 2228 2338 
Q 2531 2678 2651 2914 
Q 2772 3150 2772 3378 
Q 2772 3750 2511 3984 
Q 2250 4219 1831 4219 
Q 1534 4219 1204 4116 
Q 875 4013 500 3803 
L 500 4441 
Q 881 4594 1212 4672 
Q 1544 4750 1819 4750 
Q 2544 4750 2975 4387 
Q 3406 4025 3406 3419 
Q 3406 3131 3298 2873 
Q 3191 2616 2906 2266 
Q 2828 2175 2409 1742 
Q 1991 1309 1228 531 
z
" transform="scale(0.015625)"/>
       </defs>
       <use xlink:href="#DejaVuSans-73"/>
       <use xlink:href="#DejaVuSans-6b" x="52.099609"/>
       <use xlink:href="#DejaVuSans-65" x="106.384766"/>
       <use xlink:href="#DejaVuSans-77" x="167.908203"/>
       <use xlink:href="#DejaVuSans-2d" x="249.695312"/>
       <use xlink:href="#DejaVuSans-38" x="285.779297"/>
       <use xlink:href="#DejaVuSans-2d" x="349.402344"/>
       <use xlink:href="#DejaVuSans-30" x="385.486328"/>
       <use xlink:href="#DejaVuSans-2e" x="449.109375"/>
       <use xlink:href="#DejaVuSans-32" x="480.896484"/>
      </g>
     </g>
    </g>
    <g id="xtick_4">
     <g id="line2d_4">
      <path d="M 274.677273 379.473305 
L 274.677273 19.44 
" clip-path="url(#p81ff751e1d)" style="fill: none; stroke: #808080; stroke-opacity: 0.6; stroke-width: 2; stroke-linecap: round"/>
     </g>
     <g id="text_4">
      <!-- skew-8-0.3 -->
      <g style="fill: #262626" transform="translate(246.132587 461.366842) rotate(-45) scale(0.165 -0.165)">
       <defs>
        <path id="DejaVuSans-33" d="M 2597 2516 
Q 3050 2419 3304 2112 
Q 3559 1806 3559 1356 
Q 3559 666 3084 287 
Q 2609 -91 1734 -91 
Q 1441 -91 1130 -33 
Q 819 25 488 141 
L 488 750 
Q 750 597 1062 519 
Q 1375 441 1716 441 
Q 2309 441 2620 675 
Q 2931 909 2931 1356 
Q 2931 1769 2642 2001 
Q 2353 2234 1838 2234 
L 1294 2234 
L 1294 2753 
L 1863 2753 
Q 2328 2753 2575 2939 
Q 2822 3125 2822 3475 
Q 2822 3834 2567 4026 
Q 2313 4219 1838 4219 
Q 1578 4219 1281 4162 
Q 984 4106 628 3988 
L 628 4550 
Q 988 4650 1302 4700 
Q 1616 4750 1894 4750 
Q 2613 4750 3031 4423 
Q 3450 4097 3450 3541 
Q 3450 3153 3228 2886 
Q 3006 2619 2597 2516 
z
" transform="scale(0.015625)"/>
       </defs>
       <use xlink:href="#DejaVuSans-73"/>
       <use xlink:href="#DejaVuSans-6b" x="52.099609"/>
       <use xlink:href="#DejaVuSans-65" x="106.384766"/>
       <use xlink:href="#DejaVuSans-77" x="167.908203"/>
       <use xlink:href="#DejaVuSans-2d" x="249.695312"/>
       <use xlink:href="#DejaVuSans-38" x="285.779297"/>
       <use xlink:href="#DejaVuSans-2d" x="349.402344"/>
       <use xlink:href="#DejaVuSans-30" x="385.486328"/>
       <use xlink:href="#DejaVuSans-2e" x="449.109375"/>
       <use xlink:href="#DejaVuSans-33" x="480.896484"/>
      </g>
     </g>
    </g>
    <g id="xtick_5">
     <g id="line2d_5">
      <path d="M 331.273636 379.473305 
L 331.273636 19.44 
" clip-path="url(#p81ff751e1d)" style="fill: none; stroke: #808080; stroke-opacity: 0.6; stroke-width: 2; stroke-linecap: round"/>
     </g>
     <g id="text_5">
      <!-- skew-8-0.4 -->
      <g style="fill: #262626" transform="translate(302.728951 461.366842) rotate(-45) scale(0.165 -0.165)">
       <defs>
        <path id="DejaVuSans-34" d="M 2419 4116 
L 825 1625 
L 2419 1625 
L 2419 4116 
z
M 2253 4666 
L 3047 4666 
L 3047 1625 
L 3713 1625 
L 3713 1100 
L 3047 1100 
L 3047 0 
L 2419 0 
L 2419 1100 
L 313 1100 
L 313 1709 
L 2253 4666 
z
" transform="scale(0.015625)"/>
       </defs>
       <use xlink:href="#DejaVuSans-73"/>
       <use xlink:href="#DejaVuSans-6b" x="52.099609"/>
       <use xlink:href="#DejaVuSans-65" x="106.384766"/>
       <use xlink:href="#DejaVuSans-77" x="167.908203"/>
       <use xlink:href="#DejaVuSans-2d" x="249.695312"/>
       <use xlink:href="#DejaVuSans-38" x="285.779297"/>
       <use xlink:href="#DejaVuSans-2d" x="349.402344"/>
       <use xlink:href="#DejaVuSans-30" x="385.486328"/>
       <use xlink:href="#DejaVuSans-2e" x="449.109375"/>
       <use xlink:href="#DejaVuSans-34" x="480.896484"/>
      </g>
     </g>
    </g>
    <g id="xtick_6">
     <g id="line2d_6">
      <path d="M 387.87 379.473305 
L 387.87 19.44 
" clip-path="url(#p81ff751e1d)" style="fill: none; stroke: #808080; stroke-opacity: 0.6; stroke-width: 2; stroke-linecap: round"/>
     </g>
     <g id="text_6">
      <!-- skew-8-0.5 -->
      <g style="fill: #262626" transform="translate(359.325315 461.366842) rotate(-45) scale(0.165 -0.165)">
       <defs>
        <path id="DejaVuSans-35" d="M 691 4666 
L 3169 4666 
L 3169 4134 
L 1269 4134 
L 1269 2991 
Q 1406 3038 1543 3061 
Q 1681 3084 1819 3084 
Q 2600 3084 3056 2656 
Q 3513 2228 3513 1497 
Q 3513 744 3044 326 
Q 2575 -91 1722 -91 
Q 1428 -91 1123 -41 
Q 819 9 494 109 
L 494 744 
Q 775 591 1075 516 
Q 1375 441 1709 441 
Q 2250 441 2565 725 
Q 2881 1009 2881 1497 
Q 2881 1984 2565 2268 
Q 2250 2553 1709 2553 
Q 1456 2553 1204 2497 
Q 953 2441 691 2322 
L 691 4666 
z
" transform="scale(0.015625)"/>
       </defs>
       <use xlink:href="#DejaVuSans-73"/>
       <use xlink:href="#DejaVuSans-6b" x="52.099609"/>
       <use xlink:href="#DejaVuSans-65" x="106.384766"/>
       <use xlink:href="#DejaVuSans-77" x="167.908203"/>
       <use xlink:href="#DejaVuSans-2d" x="249.695312"/>
       <use xlink:href="#DejaVuSans-38" x="285.779297"/>
       <use xlink:href="#DejaVuSans-2d" x="349.402344"/>
       <use xlink:href="#DejaVuSans-30" x="385.486328"/>
       <use xlink:href="#DejaVuSans-2e" x="449.109375"/>
       <use xlink:href="#DejaVuSans-35" x="480.896484"/>
      </g>
     </g>
    </g>
    <g id="xtick_7">
     <g id="line2d_7">
      <path d="M 444.466364 379.473305 
L 444.466364 19.44 
" clip-path="url(#p81ff751e1d)" style="fill: none; stroke: #808080; stroke-opacity: 0.6; stroke-width: 2; stroke-linecap: round"/>
     </g>
     <g id="text_7">
      <!-- skew-8-0.6 -->
      <g style="fill: #262626" transform="translate(415.921678 461.366842) rotate(-45) scale(0.165 -0.165)">
       <defs>
        <path id="DejaVuSans-36" d="M 2113 2584 
Q 1688 2584 1439 2293 
Q 1191 2003 1191 1497 
Q 1191 994 1439 701 
Q 1688 409 2113 409 
Q 2538 409 2786 701 
Q 3034 994 3034 1497 
Q 3034 2003 2786 2293 
Q 2538 2584 2113 2584 
z
M 3366 4563 
L 3366 3988 
Q 3128 4100 2886 4159 
Q 2644 4219 2406 4219 
Q 1781 4219 1451 3797 
Q 1122 3375 1075 2522 
Q 1259 2794 1537 2939 
Q 1816 3084 2150 3084 
Q 2853 3084 3261 2657 
Q 3669 2231 3669 1497 
Q 3669 778 3244 343 
Q 2819 -91 2113 -91 
Q 1303 -91 875 529 
Q 447 1150 447 2328 
Q 447 3434 972 4092 
Q 1497 4750 2381 4750 
Q 2619 4750 2861 4703 
Q 3103 4656 3366 4563 
z
" transform="scale(0.015625)"/>
       </defs>
       <use xlink:href="#DejaVuSans-73"/>
       <use xlink:href="#DejaVuSans-6b" x="52.099609"/>
       <use xlink:href="#DejaVuSans-65" x="106.384766"/>
       <use xlink:href="#DejaVuSans-77" x="167.908203"/>
       <use xlink:href="#DejaVuSans-2d" x="249.695312"/>
       <use xlink:href="#DejaVuSans-38" x="285.779297"/>
       <use xlink:href="#DejaVuSans-2d" x="349.402344"/>
       <use xlink:href="#DejaVuSans-30" x="385.486328"/>
       <use xlink:href="#DejaVuSans-2e" x="449.109375"/>
       <use xlink:href="#DejaVuSans-36" x="480.896484"/>
      </g>
     </g>
    </g>
    <g id="xtick_8">
     <g id="line2d_8">
      <path d="M 501.062727 379.473305 
L 501.062727 19.44 
" clip-path="url(#p81ff751e1d)" style="fill: none; stroke: #808080; stroke-opacity: 0.6; stroke-width: 2; stroke-linecap: round"/>
     </g>
     <g id="text_8">
      <!-- skew-8-0.7 -->
      <g style="fill: #262626" transform="translate(472.518042 461.366842) rotate(-45) scale(0.165 -0.165)">
       <defs>
        <path id="DejaVuSans-37" d="M 525 4666 
L 3525 4666 
L 3525 4397 
L 1831 0 
L 1172 0 
L 2766 4134 
L 525 4134 
L 525 4666 
z
" transform="scale(0.015625)"/>
       </defs>
       <use xlink:href="#DejaVuSans-73"/>
       <use xlink:href="#DejaVuSans-6b" x="52.099609"/>
       <use xlink:href="#DejaVuSans-65" x="106.384766"/>
       <use xlink:href="#DejaVuSans-77" x="167.908203"/>
       <use xlink:href="#DejaVuSans-2d" x="249.695312"/>
       <use xlink:href="#DejaVuSans-38" x="285.779297"/>
       <use xlink:href="#DejaVuSans-2d" x="349.402344"/>
       <use xlink:href="#DejaVuSans-30" x="385.486328"/>
       <use xlink:href="#DejaVuSans-2e" x="449.109375"/>
       <use xlink:href="#DejaVuSans-37" x="480.896484"/>
      </g>
     </g>
    </g>
    <g id="xtick_9">
     <g id="line2d_9">
      <path d="M 557.659091 379.473305 
L 557.659091 19.44 
" clip-path="url(#p81ff751e1d)" style="fill: none; stroke: #808080; stroke-opacity: 0.6; stroke-width: 2; stroke-linecap: round"/>
     </g>
     <g id="text_9">
      <!-- skew-8-0.8 -->
      <g style="fill: #262626" transform="translate(529.114405 461.366842) rotate(-45) scale(0.165 -0.165)">
       <use xlink:href="#DejaVuSans-73"/>
       <use xlink:href="#DejaVuSans-6b" x="52.099609"/>
       <use xlink:href="#DejaVuSans-65" x="106.384766"/>
       <use xlink:href="#DejaVuSans-77" x="167.908203"/>
       <use xlink:href="#DejaVuSans-2d" x="249.695312"/>
       <use xlink:href="#DejaVuSans-38" x="285.779297"/>
       <use xlink:href="#DejaVuSans-2d" x="349.402344"/>
       <use xlink:href="#DejaVuSans-30" x="385.486328"/>
       <use xlink:href="#DejaVuSans-2e" x="449.109375"/>
       <use xlink:href="#DejaVuSans-38" x="480.896484"/>
      </g>
     </g>
    </g>
    <g id="xtick_10">
     <g id="line2d_10">
      <path d="M 614.255455 379.473305 
L 614.255455 19.44 
" clip-path="url(#p81ff751e1d)" style="fill: none; stroke: #808080; stroke-opacity: 0.6; stroke-width: 2; stroke-linecap: round"/>
     </g>
     <g id="text_10">
      <!-- skew-8-0.9 -->
      <g style="fill: #262626" transform="translate(585.710769 461.366842) rotate(-45) scale(0.165 -0.165)">
       <defs>
        <path id="DejaVuSans-39" d="M 703 97 
L 703 672 
Q 941 559 1184 500 
Q 1428 441 1663 441 
Q 2288 441 2617 861 
Q 2947 1281 2994 2138 
Q 2813 1869 2534 1725 
Q 2256 1581 1919 1581 
Q 1219 1581 811 2004 
Q 403 2428 403 3163 
Q 403 3881 828 4315 
Q 1253 4750 1959 4750 
Q 2769 4750 3195 4129 
Q 3622 3509 3622 2328 
Q 3622 1225 3098 567 
Q 2575 -91 1691 -91 
Q 1453 -91 1209 -44 
Q 966 3 703 97 
z
M 1959 2075 
Q 2384 2075 2632 2365 
Q 2881 2656 2881 3163 
Q 2881 3666 2632 3958 
Q 2384 4250 1959 4250 
Q 1534 4250 1286 3958 
Q 1038 3666 1038 3163 
Q 1038 2656 1286 2365 
Q 1534 2075 1959 2075 
z
" transform="scale(0.015625)"/>
       </defs>
       <use xlink:href="#DejaVuSans-73"/>
       <use xlink:href="#DejaVuSans-6b" x="52.099609"/>
       <use xlink:href="#DejaVuSans-65" x="106.384766"/>
       <use xlink:href="#DejaVuSans-77" x="167.908203"/>
       <use xlink:href="#DejaVuSans-2d" x="249.695312"/>
       <use xlink:href="#DejaVuSans-38" x="285.779297"/>
       <use xlink:href="#DejaVuSans-2d" x="349.402344"/>
       <use xlink:href="#DejaVuSans-30" x="385.486328"/>
       <use xlink:href="#DejaVuSans-2e" x="449.109375"/>
       <use xlink:href="#DejaVuSans-39" x="480.896484"/>
      </g>
     </g>
    </g>
    <g id="xtick_11">
     <g id="line2d_11">
      <path d="M 670.851818 379.473305 
L 670.851818 19.44 
" clip-path="url(#p81ff751e1d)" style="fill: none; stroke: #808080; stroke-opacity: 0.6; stroke-width: 2; stroke-linecap: round"/>
     </g>
     <g id="text_11">
      <!-- permutation-8 -->
      <g style="fill: #262626" transform="translate(632.2505 481.480108) rotate(-45) scale(0.165 -0.165)">
       <defs>
        <path id="DejaVuSans-70" d="M 1159 525 
L 1159 -1331 
L 581 -1331 
L 581 3500 
L 1159 3500 
L 1159 2969 
Q 1341 3281 1617 3432 
Q 1894 3584 2278 3584 
Q 2916 3584 3314 3078 
Q 3713 2572 3713 1747 
Q 3713 922 3314 415 
Q 2916 -91 2278 -91 
Q 1894 -91 1617 61 
Q 1341 213 1159 525 
z
M 3116 1747 
Q 3116 2381 2855 2742 
Q 2594 3103 2138 3103 
Q 1681 3103 1420 2742 
Q 1159 2381 1159 1747 
Q 1159 1113 1420 752 
Q 1681 391 2138 391 
Q 2594 391 2855 752 
Q 3116 1113 3116 1747 
z
" transform="scale(0.015625)"/>
        <path id="DejaVuSans-74" d="M 1172 4494 
L 1172 3500 
L 2356 3500 
L 2356 3053 
L 1172 3053 
L 1172 1153 
Q 1172 725 1289 603 
Q 1406 481 1766 481 
L 2356 481 
L 2356 0 
L 1766 0 
Q 1100 0 847 248 
Q 594 497 594 1153 
L 594 3053 
L 172 3053 
L 172 3500 
L 594 3500 
L 594 4494 
L 1172 4494 
z
" transform="scale(0.015625)"/>
        <path id="DejaVuSans-61" d="M 2194 1759 
Q 1497 1759 1228 1600 
Q 959 1441 959 1056 
Q 959 750 1161 570 
Q 1363 391 1709 391 
Q 2188 391 2477 730 
Q 2766 1069 2766 1631 
L 2766 1759 
L 2194 1759 
z
M 3341 1997 
L 3341 0 
L 2766 0 
L 2766 531 
Q 2569 213 2275 61 
Q 1981 -91 1556 -91 
Q 1019 -91 701 211 
Q 384 513 384 1019 
Q 384 1609 779 1909 
Q 1175 2209 1959 2209 
L 2766 2209 
L 2766 2266 
Q 2766 2663 2505 2880 
Q 2244 3097 1772 3097 
Q 1472 3097 1187 3025 
Q 903 2953 641 2809 
L 641 3341 
Q 956 3463 1253 3523 
Q 1550 3584 1831 3584 
Q 2591 3584 2966 3190 
Q 3341 2797 3341 1997 
z
" transform="scale(0.015625)"/>
       </defs>
       <use xlink:href="#DejaVuSans-70"/>
       <use xlink:href="#DejaVuSans-65" x="63.476562"/>
       <use xlink:href="#DejaVuSans-72" x="125"/>
       <use xlink:href="#DejaVuSans-6d" x="164.363281"/>
       <use xlink:href="#DejaVuSans-75" x="261.775391"/>
       <use xlink:href="#DejaVuSans-74" x="325.154297"/>
       <use xlink:href="#DejaVuSans-61" x="364.363281"/>
       <use xlink:href="#DejaVuSans-74" x="425.642578"/>
       <use xlink:href="#DejaVuSans-69" x="464.851562"/>
       <use xlink:href="#DejaVuSans-6f" x="492.634766"/>
       <use xlink:href="#DejaVuSans-6e" x="553.816406"/>
       <use xlink:href="#DejaVuSans-2d" x="617.195312"/>
       <use xlink:href="#DejaVuSans-38" x="653.279297"/>
      </g>
     </g>
    </g>
   </g>
   <g id="matplotlib.axis_2">
    <g id="ytick_1">
     <g id="line2d_12">
      <path d="M 76.59 341.287955 
L 699.15 341.287955 
" clip-path="url(#p81ff751e1d)" style="fill: none; stroke: #808080; stroke-opacity: 0.6; stroke-width: 2; stroke-linecap: round"/>
     </g>
     <g id="text_12">
      <!-- 0.3 -->
      <g style="fill: #262626" transform="translate(40.849844 347.556666) scale(0.165 -0.165)">
       <use xlink:href="#DejaVuSans-30"/>
       <use xlink:href="#DejaVuSans-2e" x="63.623047"/>
       <use xlink:href="#DejaVuSans-33" x="95.410156"/>
      </g>
     </g>
    </g>
    <g id="ytick_2">
     <g id="line2d_13">
      <path d="M 76.59 297.647554 
L 699.15 297.647554 
" clip-path="url(#p81ff751e1d)" style="fill: none; stroke: #808080; stroke-opacity: 0.6; stroke-width: 2; stroke-linecap: round"/>
     </g>
     <g id="text_13">
      <!-- 0.4 -->
      <g style="fill: #262626" transform="translate(40.849844 303.916265) scale(0.165 -0.165)">
       <use xlink:href="#DejaVuSans-30"/>
       <use xlink:href="#DejaVuSans-2e" x="63.623047"/>
       <use xlink:href="#DejaVuSans-34" x="95.410156"/>
      </g>
     </g>
    </g>
    <g id="ytick_3">
     <g id="line2d_14">
      <path d="M 76.59 254.007153 
L 699.15 254.007153 
" clip-path="url(#p81ff751e1d)" style="fill: none; stroke: #808080; stroke-opacity: 0.6; stroke-width: 2; stroke-linecap: round"/>
     </g>
     <g id="text_14">
      <!-- 0.5 -->
      <g style="fill: #262626" transform="translate(40.849844 260.275864) scale(0.165 -0.165)">
       <use xlink:href="#DejaVuSans-30"/>
       <use xlink:href="#DejaVuSans-2e" x="63.623047"/>
       <use xlink:href="#DejaVuSans-35" x="95.410156"/>
      </g>
     </g>
    </g>
    <g id="ytick_4">
     <g id="line2d_15">
      <path d="M 76.59 210.366753 
L 699.15 210.366753 
" clip-path="url(#p81ff751e1d)" style="fill: none; stroke: #808080; stroke-opacity: 0.6; stroke-width: 2; stroke-linecap: round"/>
     </g>
     <g id="text_15">
      <!-- 0.6 -->
      <g style="fill: #262626" transform="translate(40.849844 216.635464) scale(0.165 -0.165)">
       <use xlink:href="#DejaVuSans-30"/>
       <use xlink:href="#DejaVuSans-2e" x="63.623047"/>
       <use xlink:href="#DejaVuSans-36" x="95.410156"/>
      </g>
     </g>
    </g>
    <g id="ytick_5">
     <g id="line2d_16">
      <path d="M 76.59 166.726352 
L 699.15 166.726352 
" clip-path="url(#p81ff751e1d)" style="fill: none; stroke: #808080; stroke-opacity: 0.6; stroke-width: 2; stroke-linecap: round"/>
     </g>
     <g id="text_16">
      <!-- 0.7 -->
      <g style="fill: #262626" transform="translate(40.849844 172.995063) scale(0.165 -0.165)">
       <use xlink:href="#DejaVuSans-30"/>
       <use xlink:href="#DejaVuSans-2e" x="63.623047"/>
       <use xlink:href="#DejaVuSans-37" x="95.410156"/>
      </g>
     </g>
    </g>
    <g id="ytick_6">
     <g id="line2d_17">
      <path d="M 76.59 123.085952 
L 699.15 123.085952 
" clip-path="url(#p81ff751e1d)" style="fill: none; stroke: #808080; stroke-opacity: 0.6; stroke-width: 2; stroke-linecap: round"/>
     </g>
     <g id="text_17">
      <!-- 0.8 -->
      <g style="fill: #262626" transform="translate(40.849844 129.354662) scale(0.165 -0.165)">
       <use xlink:href="#DejaVuSans-30"/>
       <use xlink:href="#DejaVuSans-2e" x="63.623047"/>
       <use xlink:href="#DejaVuSans-38" x="95.410156"/>
      </g>
     </g>
    </g>
    <g id="ytick_7">
     <g id="line2d_18">
      <path d="M 76.59 79.445551 
L 699.15 79.445551 
" clip-path="url(#p81ff751e1d)" style="fill: none; stroke: #808080; stroke-opacity: 0.6; stroke-width: 2; stroke-linecap: round"/>
     </g>
     <g id="text_18">
      <!-- 0.9 -->
      <g style="fill: #262626" transform="translate(40.849844 85.714262) scale(0.165 -0.165)">
       <use xlink:href="#DejaVuSans-30"/>
       <use xlink:href="#DejaVuSans-2e" x="63.623047"/>
       <use xlink:href="#DejaVuSans-39" x="95.410156"/>
      </g>
     </g>
    </g>
    <g id="ytick_8">
     <g id="line2d_19">
      <path d="M 76.59 35.80515 
L 699.15 35.80515 
" clip-path="url(#p81ff751e1d)" style="fill: none; stroke: #808080; stroke-opacity: 0.6; stroke-width: 2; stroke-linecap: round"/>
     </g>
     <g id="text_19">
      <!-- 1.0 -->
      <g style="fill: #262626" transform="translate(40.849844 42.073861) scale(0.165 -0.165)">
       <use xlink:href="#DejaVuSans-31"/>
       <use xlink:href="#DejaVuSans-2e" x="63.623047"/>
       <use xlink:href="#DejaVuSans-30" x="95.410156"/>
      </g>
     </g>
    </g>
    <g id="text_20">
     <!-- Throughput -->
     <g style="fill: #262626" transform="translate(33.106406 251.728371) rotate(-90) scale(0.18 -0.18)">
      <defs>
       <path id="DejaVuSans-54" d="M -19 4666 
L 3928 4666 
L 3928 4134 
L 2272 4134 
L 2272 0 
L 1638 0 
L 1638 4134 
L -19 4134 
L -19 4666 
z
" transform="scale(0.015625)"/>
       <path id="DejaVuSans-68" d="M 3513 2113 
L 3513 0 
L 2938 0 
L 2938 2094 
Q 2938 2591 2744 2837 
Q 2550 3084 2163 3084 
Q 1697 3084 1428 2787 
Q 1159 2491 1159 1978 
L 1159 0 
L 581 0 
L 581 4863 
L 1159 4863 
L 1159 2956 
Q 1366 3272 1645 3428 
Q 1925 3584 2291 3584 
Q 2894 3584 3203 3211 
Q 3513 2838 3513 2113 
z
" transform="scale(0.015625)"/>
       <path id="DejaVuSans-67" d="M 2906 1791 
Q 2906 2416 2648 2759 
Q 2391 3103 1925 3103 
Q 1463 3103 1205 2759 
Q 947 2416 947 1791 
Q 947 1169 1205 825 
Q 1463 481 1925 481 
Q 2391 481 2648 825 
Q 2906 1169 2906 1791 
z
M 3481 434 
Q 3481 -459 3084 -895 
Q 2688 -1331 1869 -1331 
Q 1566 -1331 1297 -1286 
Q 1028 -1241 775 -1147 
L 775 -588 
Q 1028 -725 1275 -790 
Q 1522 -856 1778 -856 
Q 2344 -856 2625 -561 
Q 2906 -266 2906 331 
L 2906 616 
Q 2728 306 2450 153 
Q 2172 0 1784 0 
Q 1141 0 747 490 
Q 353 981 353 1791 
Q 353 2603 747 3093 
Q 1141 3584 1784 3584 
Q 2172 3584 2450 3431 
Q 2728 3278 2906 2969 
L 2906 3500 
L 3481 3500 
L 3481 434 
z
" transform="scale(0.015625)"/>
      </defs>
      <use xlink:href="#DejaVuSans-54"/>
      <use xlink:href="#DejaVuSans-68" x="61.083984"/>
      <use xlink:href="#DejaVuSans-72" x="124.462891"/>
      <use xlink:href="#DejaVuSans-6f" x="163.326172"/>
      <use xlink:href="#DejaVuSans-75" x="224.507812"/>
      <use xlink:href="#DejaVuSans-67" x="287.886719"/>
      <use xlink:href="#DejaVuSans-68" x="351.363281"/>
      <use xlink:href="#DejaVuSans-70" x="414.742188"/>
      <use xlink:href="#DejaVuSans-75" x="478.21875"/>
      <use xlink:href="#DejaVuSans-74" x="541.597656"/>
     </g>
    </g>
   </g>
   <g id="PolyCollection_1"/>
   <g id="PolyCollection_2"/>
   <g id="PolyCollection_3"/>
   <g id="PolyCollection_4"/>
   <g id="PolyCollection_5"/>
   <g id="line2d_20">
    <path d="M 104.888182 243.096997 
L 161.484545 237.222311 
L 218.080909 230.529672 
L 274.677273 215.500883 
L 331.273636 199.456615 
L 387.87 190.843405 
L 444.466364 196.644768 
L 501.062727 193.229415 
L 557.659091 184.017813 
L 614.255455 125.069606 
L 670.851818 35.80515 
" clip-path="url(#p81ff751e1d)" style="fill: none; stroke: #f77189; stroke-width: 3; stroke-linecap: round"/>
    <defs>
     <path id="m8ae4d42cfa" d="M 0 6 
C 1.591219 6 3.117479 5.367802 4.242641 4.242641 
C 5.367802 3.117479 6 1.591219 6 0 
C 6 -1.591219 5.367802 -3.117479 4.242641 -4.242641 
C 3.117479 -5.367802 1.591219 -6 0 -6 
C -1.591219 -6 -3.117479 -5.367802 -4.242641 -4.242641 
C -5.367802 -3.117479 -6 -1.591219 -6 0 
C -6 1.591219 -5.367802 3.117479 -4.242641 4.242641 
C -3.117479 5.367802 -1.591219 6 0 6 
z
" style="stroke: #ffffff; stroke-width: 0.75"/>
    </defs>
    <g clip-path="url(#p81ff751e1d)">
     <use xlink:href="#m8ae4d42cfa" x="104.888182" y="243.096997" style="fill: #f77189; stroke: #ffffff; stroke-width: 0.75"/>
     <use xlink:href="#m8ae4d42cfa" x="161.484545" y="237.222311" style="fill: #f77189; stroke: #ffffff; stroke-width: 0.75"/>
     <use xlink:href="#m8ae4d42cfa" x="218.080909" y="230.529672" style="fill: #f77189; stroke: #ffffff; stroke-width: 0.75"/>
     <use xlink:href="#m8ae4d42cfa" x="274.677273" y="215.500883" style="fill: #f77189; stroke: #ffffff; stroke-width: 0.75"/>
     <use xlink:href="#m8ae4d42cfa" x="331.273636" y="199.456615" style="fill: #f77189; stroke: #ffffff; stroke-width: 0.75"/>
     <use xlink:href="#m8ae4d42cfa" x="387.87" y="190.843405" style="fill: #f77189; stroke: #ffffff; stroke-width: 0.75"/>
     <use xlink:href="#m8ae4d42cfa" x="444.466364" y="196.644768" style="fill: #f77189; stroke: #ffffff; stroke-width: 0.75"/>
     <use xlink:href="#m8ae4d42cfa" x="501.062727" y="193.229415" style="fill: #f77189; stroke: #ffffff; stroke-width: 0.75"/>
     <use xlink:href="#m8ae4d42cfa" x="557.659091" y="184.017813" style="fill: #f77189; stroke: #ffffff; stroke-width: 0.75"/>
     <use xlink:href="#m8ae4d42cfa" x="614.255455" y="125.069606" style="fill: #f77189; stroke: #ffffff; stroke-width: 0.75"/>
     <use xlink:href="#m8ae4d42cfa" x="670.851818" y="35.80515" style="fill: #f77189; stroke: #ffffff; stroke-width: 0.75"/>
    </g>
   </g>
   <g id="line2d_21">
    <path d="M 104.888182 288.919474 
L 161.484545 280.191394 
L 218.080909 284.555434 
L 274.677273 258.371194 
L 331.273636 267.099274 
L 387.87 288.919474 
L 444.466364 262.735234 
L 501.062727 293.283514 
L 557.659091 197.274633 
L 614.255455 157.998272 
L 670.851818 35.80515 
" clip-path="url(#p81ff751e1d)" style="fill: none; stroke: #ae9d31; stroke-width: 3; stroke-linecap: round"/>
    <defs>
     <path id="mc290184d0a" d="M -6 6 
L 6 6 
L 6 -6 
L -6 -6 
z
" style="stroke: #ffffff; stroke-width: 0.75; stroke-linejoin: miter"/>
    </defs>
    <g clip-path="url(#p81ff751e1d)">
     <use xlink:href="#mc290184d0a" x="104.888182" y="288.919474" style="fill: #ae9d31; stroke: #ffffff; stroke-width: 0.75; stroke-linejoin: miter"/>
     <use xlink:href="#mc290184d0a" x="161.484545" y="280.191394" style="fill: #ae9d31; stroke: #ffffff; stroke-width: 0.75; stroke-linejoin: miter"/>
     <use xlink:href="#mc290184d0a" x="218.080909" y="284.555434" style="fill: #ae9d31; stroke: #ffffff; stroke-width: 0.75; stroke-linejoin: miter"/>
     <use xlink:href="#mc290184d0a" x="274.677273" y="258.371194" style="fill: #ae9d31; stroke: #ffffff; stroke-width: 0.75; stroke-linejoin: miter"/>
     <use xlink:href="#mc290184d0a" x="331.273636" y="267.099274" style="fill: #ae9d31; stroke: #ffffff; stroke-width: 0.75; stroke-linejoin: miter"/>
     <use xlink:href="#mc290184d0a" x="387.87" y="288.919474" style="fill: #ae9d31; stroke: #ffffff; stroke-width: 0.75; stroke-linejoin: miter"/>
     <use xlink:href="#mc290184d0a" x="444.466364" y="262.735234" style="fill: #ae9d31; stroke: #ffffff; stroke-width: 0.75; stroke-linejoin: miter"/>
     <use xlink:href="#mc290184d0a" x="501.062727" y="293.283514" style="fill: #ae9d31; stroke: #ffffff; stroke-width: 0.75; stroke-linejoin: miter"/>
     <use xlink:href="#mc290184d0a" x="557.659091" y="197.274633" style="fill: #ae9d31; stroke: #ffffff; stroke-width: 0.75; stroke-linejoin: miter"/>
     <use xlink:href="#mc290184d0a" x="614.255455" y="157.998272" style="fill: #ae9d31; stroke: #ffffff; stroke-width: 0.75; stroke-linejoin: miter"/>
     <use xlink:href="#mc290184d0a" x="670.851818" y="35.80515" style="fill: #ae9d31; stroke: #ffffff; stroke-width: 0.75; stroke-linejoin: miter"/>
    </g>
   </g>
   <g id="line2d_22">
    <path d="M 104.888182 284.555434 
L 161.484545 293.283514 
L 218.080909 288.919474 
L 274.677273 254.007153 
L 331.273636 245.279073 
L 387.87 223.458873 
L 444.466364 206.002713 
L 501.062727 206.002713 
L 557.659091 197.274633 
L 614.255455 197.274633 
L 670.851818 35.80515 
" clip-path="url(#p81ff751e1d)" style="fill: none; stroke: #33b07a; stroke-width: 3; stroke-linecap: round"/>
    <defs>
     <path id="m6d99bc1264" d="M -0 8.485281 
L 8.485281 0 
L 0 -8.485281 
L -8.485281 -0 
z
" style="stroke: #ffffff; stroke-width: 0.75; stroke-linejoin: miter"/>
    </defs>
    <g clip-path="url(#p81ff751e1d)">
     <use xlink:href="#m6d99bc1264" x="104.888182" y="284.555434" style="fill: #33b07a; stroke: #ffffff; stroke-width: 0.75; stroke-linejoin: miter"/>
     <use xlink:href="#m6d99bc1264" x="161.484545" y="293.283514" style="fill: #33b07a; stroke: #ffffff; stroke-width: 0.75; stroke-linejoin: miter"/>
     <use xlink:href="#m6d99bc1264" x="218.080909" y="288.919474" style="fill: #33b07a; stroke: #ffffff; stroke-width: 0.75; stroke-linejoin: miter"/>
     <use xlink:href="#m6d99bc1264" x="274.677273" y="254.007153" style="fill: #33b07a; stroke: #ffffff; stroke-width: 0.75; stroke-linejoin: miter"/>
     <use xlink:href="#m6d99bc1264" x="331.273636" y="245.279073" style="fill: #33b07a; stroke: #ffffff; stroke-width: 0.75; stroke-linejoin: miter"/>
     <use xlink:href="#m6d99bc1264" x="387.87" y="223.458873" style="fill: #33b07a; stroke: #ffffff; stroke-width: 0.75; stroke-linejoin: miter"/>
     <use xlink:href="#m6d99bc1264" x="444.466364" y="206.002713" style="fill: #33b07a; stroke: #ffffff; stroke-width: 0.75; stroke-linejoin: miter"/>
     <use xlink:href="#m6d99bc1264" x="501.062727" y="206.002713" style="fill: #33b07a; stroke: #ffffff; stroke-width: 0.75; stroke-linejoin: miter"/>
     <use xlink:href="#m6d99bc1264" x="557.659091" y="197.274633" style="fill: #33b07a; stroke: #ffffff; stroke-width: 0.75; stroke-linejoin: miter"/>
     <use xlink:href="#m6d99bc1264" x="614.255455" y="197.274633" style="fill: #33b07a; stroke: #ffffff; stroke-width: 0.75; stroke-linejoin: miter"/>
     <use xlink:href="#m6d99bc1264" x="670.851818" y="35.80515" style="fill: #33b07a; stroke: #ffffff; stroke-width: 0.75; stroke-linejoin: miter"/>
    </g>
   </g>
   <g id="line2d_23">
    <path d="M 104.888182 286.489497 
L 161.484545 307.929748 
L 218.080909 298.137657 
L 274.677273 302.423342 
L 331.273636 317.375922 
L 387.87 306.150319 
L 444.466364 306.337647 
L 501.062727 318.05473 
L 557.659091 310.351058 
L 614.255455 305.747424 
L 670.851818 324.411449 
" clip-path="url(#p81ff751e1d)" style="fill: none; stroke: #38a9c5; stroke-width: 3; stroke-linecap: round"/>
    <defs>
     <path id="m788371b1fa" d="M 0 -6 
L -6 6 
L 6 6 
z
" style="stroke: #ffffff; stroke-width: 0.75; stroke-linejoin: miter"/>
    </defs>
    <g clip-path="url(#p81ff751e1d)">
     <use xlink:href="#m788371b1fa" x="104.888182" y="286.489497" style="fill: #38a9c5; stroke: #ffffff; stroke-width: 0.75; stroke-linejoin: miter"/>
     <use xlink:href="#m788371b1fa" x="161.484545" y="307.929748" style="fill: #38a9c5; stroke: #ffffff; stroke-width: 0.75; stroke-linejoin: miter"/>
     <use xlink:href="#m788371b1fa" x="218.080909" y="298.137657" style="fill: #38a9c5; stroke: #ffffff; stroke-width: 0.75; stroke-linejoin: miter"/>
     <use xlink:href="#m788371b1fa" x="274.677273" y="302.423342" style="fill: #38a9c5; stroke: #ffffff; stroke-width: 0.75; stroke-linejoin: miter"/>
     <use xlink:href="#m788371b1fa" x="331.273636" y="317.375922" style="fill: #38a9c5; stroke: #ffffff; stroke-width: 0.75; stroke-linejoin: miter"/>
     <use xlink:href="#m788371b1fa" x="387.87" y="306.150319" style="fill: #38a9c5; stroke: #ffffff; stroke-width: 0.75; stroke-linejoin: miter"/>
     <use xlink:href="#m788371b1fa" x="444.466364" y="306.337647" style="fill: #38a9c5; stroke: #ffffff; stroke-width: 0.75; stroke-linejoin: miter"/>
     <use xlink:href="#m788371b1fa" x="501.062727" y="318.05473" style="fill: #38a9c5; stroke: #ffffff; stroke-width: 0.75; stroke-linejoin: miter"/>
     <use xlink:href="#m788371b1fa" x="557.659091" y="310.351058" style="fill: #38a9c5; stroke: #ffffff; stroke-width: 0.75; stroke-linejoin: miter"/>
     <use xlink:href="#m788371b1fa" x="614.255455" y="305.747424" style="fill: #38a9c5; stroke: #ffffff; stroke-width: 0.75; stroke-linejoin: miter"/>
     <use xlink:href="#m788371b1fa" x="670.851818" y="324.411449" style="fill: #38a9c5; stroke: #ffffff; stroke-width: 0.75; stroke-linejoin: miter"/>
    </g>
   </g>
   <g id="line2d_24">
    <path d="M 104.888182 363.108155 
L 161.484545 363.108155 
L 218.080909 363.108155 
L 274.677273 363.108155 
L 331.273636 363.108155 
L 387.87 363.108155 
L 444.466364 363.108155 
L 501.062727 363.108155 
L 557.659091 363.108155 
L 614.255455 363.108155 
L 670.851818 363.108155 
" clip-path="url(#p81ff751e1d)" style="fill: none; stroke: #cc7af4; stroke-width: 3; stroke-linecap: round"/>
    <defs>
     <path id="m156c7b293b" d="M -2 6 
L 2 6 
L 2 2 
L 6 2 
L 6 -2 
L 2 -2 
L 2 -6 
L -2 -6 
L -2 -2 
L -6 -2 
L -6 2 
L -2 2 
z
" style="stroke: #ffffff; stroke-width: 0.75; stroke-linejoin: miter"/>
    </defs>
    <g clip-path="url(#p81ff751e1d)">
     <use xlink:href="#m156c7b293b" x="104.888182" y="363.108155" style="fill: #cc7af4; stroke: #ffffff; stroke-width: 0.75; stroke-linejoin: miter"/>
     <use xlink:href="#m156c7b293b" x="161.484545" y="363.108155" style="fill: #cc7af4; stroke: #ffffff; stroke-width: 0.75; stroke-linejoin: miter"/>
     <use xlink:href="#m156c7b293b" x="218.080909" y="363.108155" style="fill: #cc7af4; stroke: #ffffff; stroke-width: 0.75; stroke-linejoin: miter"/>
     <use xlink:href="#m156c7b293b" x="274.677273" y="363.108155" style="fill: #cc7af4; stroke: #ffffff; stroke-width: 0.75; stroke-linejoin: miter"/>
     <use xlink:href="#m156c7b293b" x="331.273636" y="363.108155" style="fill: #cc7af4; stroke: #ffffff; stroke-width: 0.75; stroke-linejoin: miter"/>
     <use xlink:href="#m156c7b293b" x="387.87" y="363.108155" style="fill: #cc7af4; stroke: #ffffff; stroke-width: 0.75; stroke-linejoin: miter"/>
     <use xlink:href="#m156c7b293b" x="444.466364" y="363.108155" style="fill: #cc7af4; stroke: #ffffff; stroke-width: 0.75; stroke-linejoin: miter"/>
     <use xlink:href="#m156c7b293b" x="501.062727" y="363.108155" style="fill: #cc7af4; stroke: #ffffff; stroke-width: 0.75; stroke-linejoin: miter"/>
     <use xlink:href="#m156c7b293b" x="557.659091" y="363.108155" style="fill: #cc7af4; stroke: #ffffff; stroke-width: 0.75; stroke-linejoin: miter"/>
     <use xlink:href="#m156c7b293b" x="614.255455" y="363.108155" style="fill: #cc7af4; stroke: #ffffff; stroke-width: 0.75; stroke-linejoin: miter"/>
     <use xlink:href="#m156c7b293b" x="670.851818" y="363.108155" style="fill: #cc7af4; stroke: #ffffff; stroke-width: 0.75; stroke-linejoin: miter"/>
    </g>
   </g>
   <g id="line2d_25"/>
   <g id="line2d_26"/>
   <g id="line2d_27"/>
   <g id="line2d_28"/>
   <g id="line2d_29"/>
   <g id="patch_3">
    <path d="M 76.59 379.473305 
L 76.59 19.44 
" style="fill: none; stroke: #cccccc; stroke-width: 1.25; stroke-linejoin: miter; stroke-linecap: square"/>
   </g>
   <g id="patch_4">
    <path d="M 699.15 379.473305 
L 699.15 19.44 
" style="fill: none; stroke: #cccccc; stroke-width: 1.25; stroke-linejoin: miter; stroke-linecap: square"/>
   </g>
   <g id="patch_5">
    <path d="M 76.59 379.473305 
L 699.15 379.473305 
" style="fill: none; stroke: #cccccc; stroke-width: 1.25; stroke-linejoin: miter; stroke-linecap: square"/>
   </g>
   <g id="patch_6">
    <path d="M 76.59 19.44 
L 699.15 19.44 
" style="fill: none; stroke: #cccccc; stroke-width: 1.25; stroke-linejoin: miter; stroke-linecap: square"/>
   </g>
   <g id="legend_1">
    <g id="patch_7">
     <path d="M 710.7 179.405156 
L 841.222734 179.405156 
Q 844.522734 179.405156 844.522734 176.105156 
L 844.522734 30.99 
Q 844.522734 27.69 841.222734 27.69 
L 710.7 27.69 
Q 707.4 27.69 707.4 30.99 
L 707.4 176.105156 
Q 707.4 179.405156 710.7 179.405156 
z
" style="fill: #ffffff; opacity: 0.8; stroke: #cccccc; stroke-linejoin: miter"/>
    </g>
    <g id="text_21">
     <!-- Algorithm -->
     <g style="fill: #262626" transform="translate(731.885273 47.967188) scale(0.18 -0.18)">
      <defs>
       <path id="DejaVuSans-41" d="M 2188 4044 
L 1331 1722 
L 3047 1722 
L 2188 4044 
z
M 1831 4666 
L 2547 4666 
L 4325 0 
L 3669 0 
L 3244 1197 
L 1141 1197 
L 716 0 
L 50 0 
L 1831 4666 
z
" transform="scale(0.015625)"/>
       <path id="DejaVuSans-6c" d="M 603 4863 
L 1178 4863 
L 1178 0 
L 603 0 
L 603 4863 
z
" transform="scale(0.015625)"/>
      </defs>
      <use xlink:href="#DejaVuSans-41"/>
      <use xlink:href="#DejaVuSans-6c" x="68.408203"/>
      <use xlink:href="#DejaVuSans-67" x="96.191406"/>
      <use xlink:href="#DejaVuSans-6f" x="159.667969"/>
      <use xlink:href="#DejaVuSans-72" x="220.849609"/>
      <use xlink:href="#DejaVuSans-69" x="261.962891"/>
      <use xlink:href="#DejaVuSans-74" x="289.746094"/>
      <use xlink:href="#DejaVuSans-68" x="328.955078"/>
      <use xlink:href="#DejaVuSans-6d" x="392.333984"/>
     </g>
    </g>
    <g id="line2d_30">
     <path d="M 714 66.723047 
L 730.5 66.723047 
L 747 66.723047 
" style="fill: none; stroke: #f77189; stroke-width: 3; stroke-linecap: round"/>
     <g>
      <use xlink:href="#m8ae4d42cfa" x="730.5" y="66.723047" style="fill: #f77189; stroke: #ffffff; stroke-width: 0.75"/>
     </g>
    </g>
    <g id="text_22">
     <!-- Optimal -->
     <g style="fill: #262626" transform="translate(760.2 72.498047) scale(0.165 -0.165)">
      <defs>
       <path id="DejaVuSans-4f" d="M 2522 4238 
Q 1834 4238 1429 3725 
Q 1025 3213 1025 2328 
Q 1025 1447 1429 934 
Q 1834 422 2522 422 
Q 3209 422 3611 934 
Q 4013 1447 4013 2328 
Q 4013 3213 3611 3725 
Q 3209 4238 2522 4238 
z
M 2522 4750 
Q 3503 4750 4090 4092 
Q 4678 3434 4678 2328 
Q 4678 1225 4090 567 
Q 3503 -91 2522 -91 
Q 1538 -91 948 565 
Q 359 1222 359 2328 
Q 359 3434 948 4092 
Q 1538 4750 2522 4750 
z
" transform="scale(0.015625)"/>
      </defs>
      <use xlink:href="#DejaVuSans-4f"/>
      <use xlink:href="#DejaVuSans-70" x="78.710938"/>
      <use xlink:href="#DejaVuSans-74" x="142.1875"/>
      <use xlink:href="#DejaVuSans-69" x="181.396484"/>
      <use xlink:href="#DejaVuSans-6d" x="209.179688"/>
      <use xlink:href="#DejaVuSans-61" x="306.591797"/>
      <use xlink:href="#DejaVuSans-6c" x="367.871094"/>
     </g>
    </g>
    <g id="line2d_31">
     <path d="M 714 90.941953 
L 730.5 90.941953 
L 747 90.941953 
" style="fill: none; stroke: #ae9d31; stroke-width: 3; stroke-linecap: round"/>
     <g>
      <use xlink:href="#mc290184d0a" x="730.5" y="90.941953" style="fill: #ae9d31; stroke: #ffffff; stroke-width: 0.75; stroke-linejoin: miter"/>
     </g>
    </g>
    <g id="text_23">
     <!-- Floor -->
     <g style="fill: #262626" transform="translate(760.2 96.716953) scale(0.165 -0.165)">
      <defs>
       <path id="DejaVuSans-46" d="M 628 4666 
L 3309 4666 
L 3309 4134 
L 1259 4134 
L 1259 2759 
L 3109 2759 
L 3109 2228 
L 1259 2228 
L 1259 0 
L 628 0 
L 628 4666 
z
" transform="scale(0.015625)"/>
      </defs>
      <use xlink:href="#DejaVuSans-46"/>
      <use xlink:href="#DejaVuSans-6c" x="57.519531"/>
      <use xlink:href="#DejaVuSans-6f" x="85.302734"/>
      <use xlink:href="#DejaVuSans-6f" x="146.484375"/>
      <use xlink:href="#DejaVuSans-72" x="207.666016"/>
     </g>
    </g>
    <g id="line2d_32">
     <path d="M 714 115.160859 
L 730.5 115.160859 
L 747 115.160859 
" style="fill: none; stroke: #33b07a; stroke-width: 3; stroke-linecap: round"/>
     <g>
      <use xlink:href="#m6d99bc1264" x="730.5" y="115.160859" style="fill: #33b07a; stroke: #ffffff; stroke-width: 0.75; stroke-linejoin: miter"/>
     </g>
    </g>
    <g id="text_24">
     <!-- Rounding -->
     <g style="fill: #262626" transform="translate(760.2 120.935859) scale(0.165 -0.165)">
      <defs>
       <path id="DejaVuSans-52" d="M 2841 2188 
Q 3044 2119 3236 1894 
Q 3428 1669 3622 1275 
L 4263 0 
L 3584 0 
L 2988 1197 
Q 2756 1666 2539 1819 
Q 2322 1972 1947 1972 
L 1259 1972 
L 1259 0 
L 628 0 
L 628 4666 
L 2053 4666 
Q 2853 4666 3247 4331 
Q 3641 3997 3641 3322 
Q 3641 2881 3436 2590 
Q 3231 2300 2841 2188 
z
M 1259 4147 
L 1259 2491 
L 2053 2491 
Q 2509 2491 2742 2702 
Q 2975 2913 2975 3322 
Q 2975 3731 2742 3939 
Q 2509 4147 2053 4147 
L 1259 4147 
z
" transform="scale(0.015625)"/>
       <path id="DejaVuSans-64" d="M 2906 2969 
L 2906 4863 
L 3481 4863 
L 3481 0 
L 2906 0 
L 2906 525 
Q 2725 213 2448 61 
Q 2172 -91 1784 -91 
Q 1150 -91 751 415 
Q 353 922 353 1747 
Q 353 2572 751 3078 
Q 1150 3584 1784 3584 
Q 2172 3584 2448 3432 
Q 2725 3281 2906 2969 
z
M 947 1747 
Q 947 1113 1208 752 
Q 1469 391 1925 391 
Q 2381 391 2643 752 
Q 2906 1113 2906 1747 
Q 2906 2381 2643 2742 
Q 2381 3103 1925 3103 
Q 1469 3103 1208 2742 
Q 947 2381 947 1747 
z
" transform="scale(0.015625)"/>
      </defs>
      <use xlink:href="#DejaVuSans-52"/>
      <use xlink:href="#DejaVuSans-6f" x="64.982422"/>
      <use xlink:href="#DejaVuSans-75" x="126.164062"/>
      <use xlink:href="#DejaVuSans-6e" x="189.542969"/>
      <use xlink:href="#DejaVuSans-64" x="252.921875"/>
      <use xlink:href="#DejaVuSans-69" x="316.398438"/>
      <use xlink:href="#DejaVuSans-6e" x="344.181641"/>
      <use xlink:href="#DejaVuSans-67" x="407.560547"/>
     </g>
    </g>
    <g id="line2d_33">
     <path d="M 714 139.379766 
L 730.5 139.379766 
L 747 139.379766 
" style="fill: none; stroke: #38a9c5; stroke-width: 3; stroke-linecap: round"/>
     <g>
      <use xlink:href="#m788371b1fa" x="730.5" y="139.379766" style="fill: #38a9c5; stroke: #ffffff; stroke-width: 0.75; stroke-linejoin: miter"/>
     </g>
    </g>
    <g id="text_25">
     <!-- RRG -->
     <g style="fill: #262626" transform="translate(760.2 145.154766) scale(0.165 -0.165)">
      <defs>
       <path id="DejaVuSans-47" d="M 3809 666 
L 3809 1919 
L 2778 1919 
L 2778 2438 
L 4434 2438 
L 4434 434 
Q 4069 175 3628 42 
Q 3188 -91 2688 -91 
Q 1594 -91 976 548 
Q 359 1188 359 2328 
Q 359 3472 976 4111 
Q 1594 4750 2688 4750 
Q 3144 4750 3555 4637 
Q 3966 4525 4313 4306 
L 4313 3634 
Q 3963 3931 3569 4081 
Q 3175 4231 2741 4231 
Q 1884 4231 1454 3753 
Q 1025 3275 1025 2328 
Q 1025 1384 1454 906 
Q 1884 428 2741 428 
Q 3075 428 3337 486 
Q 3600 544 3809 666 
z
" transform="scale(0.015625)"/>
      </defs>
      <use xlink:href="#DejaVuSans-52"/>
      <use xlink:href="#DejaVuSans-52" x="69.482422"/>
      <use xlink:href="#DejaVuSans-47" x="138.964844"/>
     </g>
    </g>
    <g id="line2d_34">
     <path d="M 714 163.598672 
L 730.5 163.598672 
L 747 163.598672 
" style="fill: none; stroke: #cc7af4; stroke-width: 3; stroke-linecap: round"/>
     <g>
      <use xlink:href="#m156c7b293b" x="730.5" y="163.598672" style="fill: #cc7af4; stroke: #ffffff; stroke-width: 0.75; stroke-linejoin: miter"/>
     </g>
    </g>
    <g id="text_26">
     <!-- Ring -->
     <g style="fill: #262626" transform="translate(760.2 169.373672) scale(0.165 -0.165)">
      <use xlink:href="#DejaVuSans-52"/>
      <use xlink:href="#DejaVuSans-69" x="69.482422"/>
      <use xlink:href="#DejaVuSans-6e" x="97.265625"/>
      <use xlink:href="#DejaVuSans-67" x="160.644531"/>
     </g>
    </g>
   </g>
  </g>
 </g>
 <defs>
  <clipPath id="p81ff751e1d">
   <rect x="76.59" y="19.44" width="622.56" height="360.033305"/>
  </clipPath>
 </defs>
</svg>
